PathFileType	4	(X/Y/Z)	E:\Qualisys_Data\Carbon_Farble_Plate\Data\Amateur_Runner\S1\T1\S1T1V21_c3d.trc
DataRate	CameraRate	NumFrames	NumMarkers	Units	OrigDataRate	OrigDataStartFrame	OrigNumFrames
200.000000	200.000000	4	39	mm	200.000000	35	283
Frame#	Time	LSHO			RSHO			LICST			RICST			LASIS			LHEEL			RASIS			LTROC			RTROC			SACR			LTH1			LSK4			LTH2			LTH3			RHM5			LSK2			LTH4			RTH1			LTOE			RTH2			RTH3			RTH4			LLEP			RLEP			LSK1			LSK3			RSK1			LHM5			RSK2			LFT1			RSK3			RSK4			LLME			RLME			RTOE			RHEEL			RFT1			RFT2			LFT2			
		X1	Y1	Z1	X2	Y2	Z2	X3	Y3	Z3	X4	Y4	Z4	X5	Y5	Z5	X6	Y6	Z6	X7	Y7	Z7	X8	Y8	Z8	X9	Y9	Z9	X10	Y10	Z10	X11	Y11	Z11	X12	Y12	Z12	X13	Y13	Z13	X14	Y14	Z14	X15	Y15	Z15	X16	Y16	Z16	X17	Y17	Z17	X18	Y18	Z18	X19	Y19	Z19	X20	Y20	Z20	X21	Y21	Z21	X22	Y22	Z22	X23	Y23	Z23	X24	Y24	Z24	X25	Y25	Z25	X26	Y26	Z26	X27	Y27	Z27	X28	Y28	Z28	X29	Y29	Z29	X30	Y30	Z30	X31	Y31	Z31	X32	Y32	Z32	X33	Y33	Z33	X34	Y34	Z34	X35	Y35	Z35	X36	Y36	Z36	X37	Y37	Z37	X38	Y38	Z38	X39	Y39	Z39	

36	0.175	-2120.474365234375	1484.825317382812	-562.9403686523438	-2125.377197265625	1440.813720703125	-233.8419036865234	-2159.908203125	992.61669921875	-562.1922607421875	-2166.052978515625	1031.230590820312	-261.4790344238281	-2109.8642578125	959.9525146484376	-529.6649780273438	-2399.924560546875	410.4213562011719	-468.709228515625	-2122.41943359375	985.5111083984376	-263.6655578613281	-2203.782958984375	864.9221801757812	-571.884521484375	-2225.17041015625	889.4910888671875	-236.8319091796875	-2278.0595703125	1021.411682128906	-410.1239624023438	-2021.107299804688	779.3771362304688	-553.45849609375	-2253.59619140625	465.7406921386719	-502.2864990234375	-2090.65625	737.33984375	-583.5689086914062	-1971.640014648438	688.0304565429688	-547.191162109375	-2143.4453125	60.29605865478516	-278.8703308105469	-2161.85595703125	495.04638671875	-542.4821166992188	-2044.955444335938	647.89111328125	-567.8865966796875	-2071.13818359375	777.364013671875	-249.7445678710938	-2292.30517578125	177.0557708740234	-468.0185546875	-2146.250732421875	759.6862182617188	-228.0020141601562	-2052.423583984375	677.8151245117188	-261.5641174316406	-2130.833740234375	662.1368408203125	-247.1054077148438	-1962.43701171875	526.596435546875	-534.9956665039062	-2078.5068359375	497.7730712890625	-290.7619018554688	-2135.939208984375	416.0802612304688	-530.9556274414062	-2236.088134765625	391.3858032226562	-526.5137329101562	-2136.769775390625	316.2891845703125	-285.5317077636719	-2336.890625	226.9211883544922	-526.7073974609375	-2211.95751953125	346.6784973144531	-288.9025268554688	-2417.07568359375	390.9483032226562	-439.7508544921875	-2172.50927734375	224.0351867675781	-302.1079711914062	-2245.55712890625	256.2187805175781	-315.6935424804688	-2354.87255859375	374.5494079589844	-515.7835083007812	-2252.14404296875	124.5999526977539	-304.3613586425781	-2072.50732421875	68.2623519897461	-358.5753479003906	-2326.26416015625	103.1095123291016	-343.031494140625	-2321.576416015625	71.87541961669922	-373.8995056152344	-2325.751953125	78.09712219238281	-315.1300659179688	-2423.339111328125	393.1199340820312	-493.3439636230469
37	0.18	-2102.6611328125	1487.365234375	-563.6542358398438	-2103.7333984375	1443.18994140625	-235.0238037109375	-2140.220703125	995.2879638671876	-561.5795288085938	-2143.3994140625	1032.655029296875	-261.67626953125	-2090.835205078125	962.4791870117188	-530.7614135742188	-2366.7373046875	400.614501953125	-468.8360290527344	-2098.825439453125	987.3005981445312	-264.76708984375	-2183.568115234375	867.1908569335938	-571.3026123046875	-2203.60498046875	890.933349609375	-236.3758239746094	-2256.871337890625	1023.810974121094	-407.9659729003906	-1999.669677734375	785.5498046875	-552.9766235351562	-2222.957275390625	462.5417785644531	-502.859375	-2067.767333984375	741.4641723632812	-582.6107177734375	-1947.33447265625	695.5352783203125	-546.6868286132812	-2143.125732421875	60.30027008056641	-278.9984741210938	-2131.100341796875	494.5764465332031	-541.4966430664062	-2019.946899414062	653.4651489257812	-566.9598388671875	-2052.622802734375	772.6753540039062	-249.4284820556641	-2250.458740234375	172.9740753173828	-468.5430297851562	-2130.138427734375	758.259765625	-228.5954132080078	-2039.483276367188	672.3961791992188	-262.3991394042969	-2118.772216796875	660.4940185546875	-247.4317932128906	-1933.720947265625	534.4457397460938	-533.8475341796875	-2070.883056640625	495.0859069824219	-292.1536865234375	-2103.493408203125	416.9655151367188	-530.2352905273438	-2203.7919921875	390.8432922363281	-526.3450927734375	-2131.904052734375	316.2446899414062	-285.6404724121094	-2295.704833984375	221.1025695800781	-526.7046508789062	-2206.40234375	348.5884399414062	-290.2572937011719	-2383.578125	380.3894958496094	-440.0963439941406	-2169.161865234375	224.7514190673828	-301.958984375	-2241.53564453125	258.2160339355469	-316.7290649414062	-2320.86328125	367.3898315429688	-516.1122436523438	-2250.2734375	126.1915588378906	-303.459228515625	-2072.4951171875	67.82192993164062	-359.0143432617188	-2326.3349609375	104.6446762084961	-342.6311645507812	-2320.967041015625	73.63717651367188	-373.6647338867188	-2325.598876953125	78.90137481689453	-314.8348388671875	-2390.026611328125	382.908935546875	-493.7530212402344
38	0.185	-2084.465087890625	1490.135620117188	-564.6392822265625	-2081.38818359375	1445.829223632812	-236.0153350830078	-2120.929443359375	998.1763916015624	-561.5564575195312	-2121.11376953125	1034.3095703125	-260.7870788574219	-2069.062744140625	966.2568969726562	-530.6549072265625	-2336.42333984375	390.2613220214844	-469.4855041503906	-2076.478515625	987.9757690429688	-265.7276306152344	-2163.904052734375	870.9922485351562	-571.5736694335938	-2180.7548828125	892.472900390625	-235.5043182373047	-2235.3125	1025.51171875	-405.6019897460938	-1978.359497070312	791.97705078125	-552.8671264648438	-2191.393798828125	458.2648620605469	-502.133056640625	-2045.672607421875	746.4327392578125	-582.9003295898438	-1923.780151367188	703.7612915039062	-546.3605346679688	-2143.37841796875	60.03946685791016	-279.2586975097656	-2101.842529296875	493.5726928710938	-540.8920288085938	-1995.498413085938	659.59619140625	-566.4917602539062	-2035.21142578125	769.0662231445312	-250.3034210205078	-2206.3525390625	168.7656097412109	-468.8966674804688	-2111.66796875	758.0614013671875	-229.1503448486328	-2026.930053710938	667.8629760742188	-262.31689453125	-2106.7744140625	659.8640747070312	-248.2728271484375	-1906.256958007812	542.6600952148438	-534.2923583984375	-2060.895751953125	494.0931396484375	-293.0114135742188	-2071.260986328125	418.29345703125	-529.5029296875	-2168.0302734375	386.3667907714844	-524.607666015625	-2126.650634765625	317.0856323242188	-286.0690002441406	-2252.30615234375	215.2284851074219	-526.2523803710938	-2200.51708984375	350.5805969238281	-290.8731079101562	-2350.03662109375	369.3729858398438	-440.3758544921875	-2165.556640625	226.1069030761719	-302.5093994140625	-2236.836181640625	261.2655639648438	-316.9564819335938	-2285.580810546875	359.0844421386719	-515.6701049804688	-2249.340087890625	128.3028106689453	-303.5402221679688	-2071.8662109375	67.27784729003906	-359.5151062011719	-2325.7490234375	107.1366729736328	-342.7607727050781	-2320.96630859375	75.8749771118164	-373.7492370605469	-2325.329345703125	80.8452377319336	-315.1153869628906	-2356.831298828125	372.5472717285156	-495.0282287597656
39	0.19	-2066.69677734375	1493.308349609375	-565.8676147460938	-2059.031982421875	1449.390625	-236.7761077880859	-2102.015380859375	1002.197448730469	-561.4160766601562	-2097.040771484375	1035.256958007812	-260.54541015625	-2051.26611328125	970.8862915039062	-532.8773193359375	-2300.551025390625	380.6527099609375	-468.5397338867188	-2053.08544921875	988.5748901367188	-267.3517150878906	-2143.9404296875	874.90673828125	-571.6373291015625	-2159.2548828125	893.8141479492188	-234.7519989013672	-2214.231689453125	1028.03369140625	-403.5815734863281	-1956.651000976562	798.3526611328125	-552.7107543945312	-2161.524169921875	454.5055847167969	-502.4786376953125	-2023.326293945312	751.3732299804688	-581.9930419921875	-1900.129516601562	711.3016967773438	-545.6658325195312	-2143.1533203125	59.94081497192383	-279.43798828125	-2073.614990234375	495.2879638671875	-539.55419921875	-1970.991577148438	665.3217163085938	-565.4052124023438	-2018.318359375	766.68212890625	-250.3545532226562	-2162.873046875	164.4428100585938	-469.6443481445312	-2096.018310546875	759.323486328125	-229.7266235351562	-2013.53759765625	665.3365478515625	-262.9575805664062	-2094.0234375	660.5908203125	-248.7772369384766	-1879.052490234375	550.7947998046875	-533.3657836914062	-2051.125732421875	494.1384582519531	-294.2008972167969	-2039.458740234375	419.9232482910156	-528.9609375	-2134.514892578125	384.1383666992188	-523.59912109375	-2120.53369140625	318.2243957519531	-287.099853515625	-2208.68115234375	209.5288238525391	-525.768310546875	-2193.615966796875	352.9439697265625	-290.4607238769531	-2316.52392578125	359.0281677246094	-439.5724182128906	-2161.756591796875	227.9804840087891	-302.8100280761719	-2232.541015625	263.9916076660156	-316.8336486816406	-2251.1630859375	351.5428466796875	-515.5225830078125	-2248.673828125	131.2730102539062	-303.3919372558594	-2072.137939453125	65.9957046508789	-360.2621765136719	-2324.465087890625	108.1728820800781	-342.0040283203125	-2320.192138671875	77.89431762695312	-373.3285827636719	-2324.2275390625	82.39630126953125	-314.7747802734375	-2322.741943359375	361.53564453125	-494.5610656738281
